<?xml version="1.0" encoding="iso-8859-1"?>
<!-- Generator: Adobe Illustrator 19.0.0, SVG Export Plug-In . SVG Version: 6.00 Build 0)  -->
<svg version="1.1" id="Layer_1" xmlns="http://www.w3.org/2000/svg" xmlns:xlink="http://www.w3.org/1999/xlink" x="0px" y="0px"
	 viewBox="0 0 512.001 512.001" style="enable-background:new 0 0 512.001 512.001;" xml:space="preserve">
<g>
	<path style="fill:#B3B3B3;" d="M288.335,288.335c6.79,7.653,26.945,17.353,26.945,17.353
		c59.173,18.755,59.281,53.245,59.281,53.245s0,6.898,0,15.629H175.162l-0.216-0.216l113.173-113.173l0.216,0.216V288.335z"/>
	<path style="fill:#B3B3B3;" d="M256.001,86.349c66.503,0,68.766,67.257,68.658,77.173L222.48,265.701
		c-18.647-10.779-31.042-30.718-34.276-54.323c-9.7-1.294-19.616-10.455-19.616-18.539c0-8.623,8.407-12.503,18.755-12.503v-15.629
		C187.341,164.707,184.109,86.349,256.001,86.349z"/>
</g>
<g>
	<path style="fill:#F4661E;" d="M324.659,163.522l66.071-66.071l1.401-1.616c10.994,9.377,21.018,19.94,29.856,31.365
		L288.12,261.173L174.947,374.346l-47.748,47.64c-11.426-8.839-21.987-18.863-31.365-29.856l1.616-1.401L222.48,265.7
		L324.659,163.522z"/>
	<path style="fill:#F4661E;" d="M421.987,127.199c-8.839-11.426-18.863-21.987-29.856-31.365
		c-36.647-31.258-84.287-50.011-136.131-50.011c-116.083,0-210.178,94.095-210.178,210.178c0,51.844,18.755,99.484,50.011,136.131
		c9.377,10.994,19.94,21.018,31.365,29.856c35.569,27.7,80.298,44.192,128.801,44.192c116.083,0,210.179-94.095,210.179-210.178
		C466.178,207.498,449.687,162.767,421.987,127.199z M256.001,8.098c136.885,0,247.903,111.017,247.903,247.903
		S392.886,503.903,256.001,503.903S8.098,392.886,8.098,256.001S119.115,8.098,256.001,8.098z"/>
</g>
<g>
	<path style="fill:#231F20;" d="M256.001,0C114.841,0,0,114.841,0,256.001s114.841,256.001,256.001,256.001
		S512.001,397.16,512.001,256.001S397.159,0,256.001,0z M256.001,495.804c-132.228,0-239.805-107.576-239.805-239.805
		S123.772,16.196,256.001,16.196s239.805,107.576,239.805,239.805S388.228,495.804,256.001,495.804z"/>
	<path style="fill:#231F20;" d="M428.386,122.237c-9.242-11.945-19.671-22.902-31-32.564
		c-39.275-33.498-89.487-51.947-141.386-51.947c-120.358,0-218.275,97.917-218.275,218.275c0,51.899,18.449,102.111,51.947,141.385
		c9.665,11.331,20.624,21.762,32.55,30.989c38.558,30.029,84.817,45.901,133.777,45.901c120.358,0,218.275-97.917,218.275-218.275
		C474.276,207.046,458.407,160.791,428.386,122.237z M53.92,256.001c0-111.427,90.653-202.08,202.08-202.08
		c45.152,0,88.915,15.078,124.188,42.619l-48.944,48.944c-2.301-13.957-8.03-32.794-22.18-47.097
		c-13.216-13.36-31.069-20.133-53.065-20.133c-22.425,0-40.524,7.014-53.798,20.847c-23.733,24.733-23.068,62.386-22.958,65.754
		v8.126c-11.618,2.263-18.755,9.562-18.755,19.861c0,11.076,9.944,21.122,20.587,25.036c3.942,20.177,14.128,37.4,28.79,48.987
		L96.538,380.19C68.998,344.915,53.92,301.152,53.92,256.001z M221.418,255.31c-13.512-9.958-22.588-26.023-25.19-45.031
		l-0.837-6.113l-6.117-0.815c-6.367-0.849-12.588-7.266-12.588-10.511c0-4.282,9.566-4.405,10.657-4.405h8.098v-23.727l-0.008-0.335
		c-0.014-0.334-1.151-33.63,18.456-54.061c10.101-10.527,24.27-15.864,42.112-15.864c17.511,0,31.49,5.157,41.551,15.328
		c16.04,16.215,18.572,41.188,18.948,50.454L221.418,255.31z M107.066,392.567l285.502-285.502
		c6.575,6.062,12.784,12.602,18.555,19.55l-128.73,128.832L169.227,368.613l-42.609,42.513
		C119.669,405.353,113.128,399.145,107.066,392.567z M282.279,293.71c7.649,8.619,27.279,18.209,29.49,19.275l0.517,0.249
		l0.548,0.173c51.506,16.324,53.554,43.942,53.629,45.634v7.423H194.282l85.956-85.956v10.903L282.279,293.71z M256.001,458.08
		c-42.228,0-82.279-12.759-116.433-36.993l38.512-38.427h204.58v-23.752c-0.005-1.644-0.856-40.405-64.368-60.76
		c-6.339-3.089-16.592-8.793-21.858-13.241V264.31l124.649-124.75c24.232,34.143,36.998,74.202,36.998,116.441
		C458.08,367.427,367.427,458.08,256.001,458.08z"/>
</g>
<g>
</g>
<g>
</g>
<g>
</g>
<g>
</g>
<g>
</g>
<g>
</g>
<g>
</g>
<g>
</g>
<g>
</g>
<g>
</g>
<g>
</g>
<g>
</g>
<g>
</g>
<g>
</g>
<g>
</g>
</svg>
