<?xml version="1.0" encoding="iso-8859-1"?>
<!-- Generator: Adobe Illustrator 19.0.0, SVG Export Plug-In . SVG Version: 6.00 Build 0)  -->
<svg version="1.1" id="Layer_1" xmlns="http://www.w3.org/2000/svg" xmlns:xlink="http://www.w3.org/1999/xlink" x="0px" y="0px"
	 viewBox="0 0 512 512" style="enable-background:new 0 0 512 512;" xml:space="preserve">
<path style="fill:#FFDA44;" d="M512,290.133V142.222h-34.133v-34.133h-34.133V73.956H307.2v34.133h-34.133v34.133h-34.133v-34.133
	H204.8V73.956H68.267v34.133H34.133v34.133H0v147.911h34.133V358.4H0v79.644h512V358.4h-34.133v-68.267H512z M238.933,358.4v-68.267
	h34.133V358.4H238.933z"/>
<polygon style="fill:#FFFFFF;" points="68.267,73.956 68.267,108.089 34.133,108.089 34.133,142.222 0,142.222 0,176.356 
	68.267,176.356 68.267,142.222 102.4,142.222 102.4,73.956 "/>
<polygon style="fill:#FF9811;" points="512,290.133 512,142.222 477.867,142.222 477.867,108.089 443.733,108.089 443.733,73.956 
	307.2,73.956 307.2,108.089 273.067,108.089 273.067,142.222 238.933,142.222 238.933,290.133 273.067,290.133 273.067,358.4 
	238.933,358.4 238.933,438.044 512,438.044 512,358.4 477.867,358.4 477.867,290.133 "/>
<polygon style="fill:#FFFFFF;" points="307.2,73.956 307.2,108.089 273.067,108.089 273.067,142.222 238.933,142.222 
	238.933,176.356 307.2,176.356 307.2,142.222 341.333,142.222 341.333,73.956 "/>
<rect y="142.222" width="34.133" height="147.911"/>
<rect x="68.267" y="73.956" width="136.533" height="34.133"/>
<rect x="34.133" y="108.089" width="34.133" height="34.133"/>
<rect x="204.8" y="108.089" width="34.133" height="34.133"/>
<polygon points="238.933,290.133 204.8,290.133 204.8,324.267 170.667,324.267 170.667,358.4 238.933,358.4 "/>
<polygon points="102.4,358.4 102.4,324.267 68.267,324.267 68.267,290.133 34.133,290.133 34.133,358.4 "/>
<rect x="238.933" y="142.222" width="34.133" height="147.911"/>
<rect x="477.867" y="142.222" width="34.133" height="147.911"/>
<rect x="307.2" y="73.956" width="136.533" height="34.133"/>
<rect x="273.067" y="108.089" width="34.133" height="34.133"/>
<rect x="443.733" y="108.089" width="34.133" height="34.133"/>
<polygon points="477.867,290.133 443.733,290.133 443.733,324.267 409.6,324.267 409.6,358.4 477.867,358.4 "/>
<polygon points="273.067,403.911 273.067,358.4 238.933,358.4 238.933,403.911 34.133,403.911 34.133,358.4 0,358.4 0,438.044 
	512,438.044 512,358.4 477.867,358.4 477.867,403.911 "/>
<polygon points="273.067,358.4 341.333,358.4 341.333,324.267 307.2,324.267 307.2,290.133 273.067,290.133 "/>
<g>
</g>
<g>
</g>
<g>
</g>
<g>
</g>
<g>
</g>
<g>
</g>
<g>
</g>
<g>
</g>
<g>
</g>
<g>
</g>
<g>
</g>
<g>
</g>
<g>
</g>
<g>
</g>
<g>
</g>
</svg>
